<?xml version="1.0" standalone="no"?>
<!DOCTYPE svg PUBLIC "-//W3C//DTD SVG 20010904//EN"
 "http://www.w3.org/TR/2001/REC-SVG-20010904/DTD/svg10.dtd">
<svg version="1.0" xmlns="http://www.w3.org/2000/svg"
 width="784.000000pt" height="570.000000pt" viewBox="0 0 784.000000 570.000000"
 preserveAspectRatio="xMidYMid meet">

<g transform="translate(0.000000,570.000000) scale(0.100000,-0.100000)"
fill="#000000" stroke="none">
<path d="M0 2850 l0 -2850 3920 0 3920 0 0 2850 0 2850 -3920 0 -3920 0 0
-2850z m6086 1957 c36 -19 91 -79 105 -114 14 -38 10 -191 -7 -263 -29 -125
-207 -486 -258 -524 -28 -21 -146 -36 -146 -19 0 6 23 57 51 114 61 123 75
162 94 250 23 110 -5 220 -67 258 -33 20 -116 41 -166 41 -106 0 -304 -56
-507 -145 -88 -38 -245 -118 -245 -124 0 -3 43 -46 96 -95 53 -49 137 -137
187 -195 l90 -106 -41 -3 c-54 -4 -83 12 -181 102 -191 175 -466 356 -662 433
-205 82 -460 145 -663 164 -130 13 -345 5 -496 -18 -58 -8 -130 -19 -160 -22
-74 -10 -52 -16 120 -36 183 -20 374 -46 379 -51 4 -4 -772 -9 -811 -6 -14 1
-18 -6 -18 -36 l0 -37 228 -39 c125 -22 261 -45 302 -51 l75 -13 -100 -2 c-55
-1 -252 -2 -437 -1 -282 0 -338 -2 -338 -14 0 -7 -3 -20 -6 -28 -3 -10 3 -16
23 -20 108 -19 627 -127 631 -132 3 -3 -226 -5 -509 -5 l-514 -1 -84 -79 c-97
-91 -131 -110 -196 -110 l-47 0 68 83 c225 275 523 496 866 643 300 129 727
189 1054 150 307 -36 650 -157 907 -318 45 -28 87 -51 92 -51 6 0 55 26 109
57 129 74 404 212 540 270 112 48 256 93 341 107 81 13 266 4 301 -14z m-4039
-1190 c4 -5 8 -86 8 -180 l0 -172 -263 -514 c-144 -283 -260 -516 -257 -519 3
-3 117 -6 254 -6 137 -1 253 -5 258 -9 12 -12 15 -290 3 -321 l-10 -26 -472 2
-473 3 -3 174 -2 174 255 511 c140 281 255 517 255 524 0 9 -56 12 -249 12
-218 0 -250 2 -255 16 -3 9 -6 87 -6 174 0 143 2 159 18 163 30 9 930 2 939
-6z m1100 0 c11 -12 13 -308 1 -329 -8 -16 -31 -18 -273 -18 l-265 0 0 -169
c0 -153 2 -170 18 -174 9 -3 78 -6 152 -7 74 -1 138 -4 142 -6 4 -3 5 -42 3
-87 -2 -45 -4 -121 -5 -169 l0 -88 -155 0 -155 0 0 -170 0 -170 258 0 c141 0
263 -4 269 -8 18 -12 30 -300 14 -330 l-12 -22 -472 2 -472 3 -3 872 c-2 824
-1 872 15 876 32 9 931 2 940 -6z m537 4 c6 -8 46 -175 112 -465 16 -73 30
-113 34 -105 5 8 36 138 69 289 34 151 67 278 74 282 13 9 412 6 421 -3 3 -3
-77 -252 -178 -553 l-184 -547 -1 -316 c0 -247 -3 -318 -13 -325 -18 -11 -370
-10 -388 2 -13 8 -15 57 -16 332 l-1 323 -177 529 c-97 291 -176 534 -176 541
0 8 6 16 13 18 22 9 406 7 411 -2z m1561 -21 c174 -67 284 -204 320 -396 37
-192 -14 -377 -139 -512 l-52 -55 39 -131 c21 -72 55 -189 76 -261 21 -71 53
-178 71 -238 18 -59 29 -114 26 -122 -4 -13 -38 -15 -203 -15 -109 0 -203 4
-209 8 -6 4 -29 81 -53 172 -142 552 -132 520 -166 520 l-25 0 -2 -347 -3
-348 -199 -3 c-153 -2 -201 1 -208 10 -4 7 -8 399 -8 870 0 806 1 858 18 868
11 7 122 9 337 7 308 -3 322 -4 380 -27z m1249 24 c17 -6 23 -33 121 -499 36
-170 79 -373 96 -450 16 -77 39 -183 50 -235 11 -52 42 -198 69 -324 27 -126
47 -233 44 -238 -3 -4 -97 -8 -209 -8 l-204 0 -10 38 c-5 20 -15 76 -21 125
l-12 87 -148 0 -148 0 -12 -87 c-7 -49 -16 -104 -19 -123 l-7 -35 -201 -3
c-186 -2 -202 -1 -205 15 -2 10 9 77 24 148 16 72 32 150 38 175 14 70 66 312
95 445 14 66 33 154 42 195 22 110 29 140 63 300 18 80 40 186 51 235 42 202
49 229 61 237 15 9 418 11 442 2z m-4974 -1969 c0 -2 -25 -46 -55 -97 -131
-219 -189 -374 -190 -503 0 -102 22 -142 98 -179 105 -51 208 -44 427 26 151
49 507 210 524 236 3 5 -24 32 -60 61 -103 83 -260 237 -350 346 -46 55 -84
103 -84 108 0 11 37 9 84 -5 29 -9 65 -37 126 -96 107 -105 208 -187 331 -269
l96 -64 94 57 c52 31 191 121 310 200 119 79 233 151 254 159 44 19 175 33
160 17 -5 -5 -44 -37 -85 -69 -69 -54 -155 -116 -505 -361 -351 -245 -824
-502 -1082 -586 -204 -66 -371 -81 -468 -40 -52 21 -102 85 -111 140 -27 181
47 401 249 739 86 146 128 184 200 185 20 0 37 -2 37 -5z m3790 0 c0 -17 -150
-195 -230 -274 -273 -268 -571 -445 -912 -541 -282 -80 -482 -102 -749 -81
-186 14 -295 33 -439 76 -127 38 -340 123 -340 135 0 9 48 46 102 78 35 22 39
22 74 7 77 -32 249 -76 387 -100 269 -45 544 -42 807 11 105 21 110 23 110 43
0 16 -15 20 -92 30 -51 7 -173 23 -271 35 -98 13 -179 25 -182 27 -2 2 182 4
408 4 l412 0 3 32 c3 27 0 32 -25 37 -15 3 -148 26 -294 51 -146 25 -270 46
-275 47 -5 2 185 5 421 8 l430 5 3 26 c3 26 2 26 -135 53 -207 42 -494 104
-499 109 -3 2 224 5 503 6 l508 2 77 76 c42 42 90 82 105 89 28 12 93 19 93 9z"/>
<path d="M4930 3081 l0 -191 61 0 c113 0 165 61 163 191 -2 124 -48 178 -158
186 l-66 6 0 -192z"/>
<path d="M6260 3049 c0 -2 -18 -127 -40 -278 -22 -151 -40 -285 -40 -298 0
-22 3 -23 90 -23 65 0 90 3 90 13 0 6 -7 53 -15 102 -8 50 -29 178 -45 284
-17 107 -33 197 -35 200 -3 2 -5 2 -5 0z"/>
</g>
</svg>
